<svg width="44" height="44" viewBox="0 0 44 44" fill="none" xmlns="http://www.w3.org/2000/svg">
<path d="M43.2001 36.1043C42.9082 35.652 42.56 35.2521 42.165 34.9155L38.1495 31.4133C38.1183 31.3662 38.082 31.3216 38.0405 31.28C37.9707 31.2104 37.8916 31.156 37.8076 31.1152L35.3793 28.9973L24.1395 19.1926C24.5996 18.7116 24.8529 18.0826 24.8529 17.4138C24.8529 16.7247 24.5847 16.0772 24.0972 15.5897C23.8846 15.3774 23.6429 15.2104 23.3847 15.0881L24.4245 14.0483C24.7152 14.1255 25.0138 14.1651 25.3127 14.1651C26.1928 14.165 27.073 13.83 27.7429 13.16C28.3925 12.5106 28.7501 11.6474 28.7501 10.7293C28.7501 9.81123 28.3925 8.94798 27.743 8.29856L20.4514 1.0071C19.802 0.357672 18.9386 0 18.0203 0C17.1024 0 16.2393 0.357672 15.59 1.0071C14.6925 1.90463 14.397 3.179 14.7017 4.32558L4.32694 14.7003C4.04026 14.6241 3.74197 14.5839 3.43723 14.5839C2.51873 14.5839 1.65583 14.9413 1.00692 15.5901C-0.333361 16.9304 -0.333361 19.1112 1.00692 20.4516L8.29846 27.7432C8.96869 28.4133 9.84894 28.7484 10.7292 28.7484C11.6095 28.7484 12.4898 28.4133 13.16 27.7432C14.0576 26.8456 14.353 25.5713 14.0483 24.4247L15.086 23.3869C15.2107 23.6473 15.3799 23.8876 15.5901 24.0977C16.077 24.5847 16.7244 24.8529 17.4132 24.8529C18.0814 24.8529 18.7101 24.6 19.1918 24.1404L31.1634 37.895C31.1964 37.9466 31.2349 37.9956 31.28 38.0407C31.2953 38.056 31.3117 38.0701 31.3279 38.084L34.8953 42.1827C34.9839 42.2873 35.0787 42.3903 35.1771 42.4887C36.1569 43.4681 37.451 43.9997 38.8097 43.9997C39.0492 43.9997 39.291 43.9832 39.533 43.9496C41.1512 43.7257 42.5496 42.7577 43.3696 41.2935C44.2679 39.6888 44.2011 37.6515 43.2001 36.1043ZM16.8054 2.22243C17.1302 1.89767 17.5617 1.71875 18.0204 1.71875C18.4796 1.71875 18.9115 1.89767 19.2362 2.22243L26.5278 9.51397C26.8525 9.83873 27.0314 10.2704 27.0314 10.7294C27.0314 11.1884 26.8525 11.62 26.5277 11.9448C25.8578 12.6149 24.7676 12.6149 24.0977 11.9448L16.8058 4.65291C16.8057 4.65274 16.8056 4.65266 16.8054 4.65248C16.1354 3.98252 16.1354 2.8924 16.8054 2.22243ZM11.9447 26.5279C11.2746 27.198 10.1839 27.1981 9.51379 26.5279L2.22225 19.2363C1.55202 18.5661 1.55202 17.4757 2.22225 16.8054C2.5464 16.4812 2.97798 16.3026 3.43723 16.3026C3.8964 16.3026 4.32772 16.4811 4.65179 16.8051L11.9446 24.0979C12.6148 24.7678 12.6148 25.858 11.9447 26.5279ZM15.5628 20.4796L13.1599 22.8826L5.86763 15.5903L15.59 5.86773L22.8822 13.16L20.4749 15.5674C20.4671 15.5748 20.4595 15.582 20.4512 15.5902L15.5925 20.449C15.5824 20.4589 15.5727 20.4692 15.5628 20.4796ZM18.6313 22.2723C18.6296 22.2741 18.628 22.2757 18.6263 22.2774L18.0211 22.8826C17.8587 23.0448 17.643 23.1342 17.4132 23.1342C17.1835 23.1342 16.9676 23.0448 16.8053 22.8825C16.6428 22.7201 16.5534 22.504 16.5534 22.2741C16.5534 22.0492 16.6392 21.8375 16.795 21.6778L21.6763 16.7965C22.0109 16.4711 22.5518 16.4752 22.8824 16.8054C23.0448 16.9678 23.1343 17.1839 23.1343 17.4138C23.1343 17.6435 23.0451 17.8589 22.8823 18.0213L22.2807 18.6229C22.2765 18.627 22.2724 18.6311 22.2684 18.6352L18.6313 22.2723ZM20.4109 22.9233L22.9225 20.4117L33.5566 29.6874L29.6762 33.5679L20.4109 22.9233ZM30.8072 34.8674L34.8548 30.8198L36.153 31.9522L31.9382 36.1671L30.8072 34.8674ZM41.8701 40.4539C41.3155 41.4441 40.3778 42.0977 39.2975 42.2472C38.2197 42.3964 37.1607 42.0414 36.3922 41.2733C36.3261 41.2073 36.2629 41.1385 36.2039 41.0687C36.2012 41.0654 36.1984 41.0621 36.1956 41.059L33.0692 37.4666L37.4512 33.0845L41.0391 36.2141C41.0418 36.2165 41.0445 36.2188 41.0474 36.2212C41.3159 36.4495 41.5542 36.7238 41.7564 37.0371C42.4063 38.0413 42.4518 39.4145 41.8701 40.4539Z" fill="#295C7A"/>
</svg>
