<svg width="40" height="44" viewBox="0 0 40 44" fill="none" xmlns="http://www.w3.org/2000/svg">
<g clip-path="url(#clip0_3347_3605)">
<path d="M12.6213 4.07275H5.21753C4.86149 4.07275 4.573 4.36133 4.573 4.71729C4.573 5.07324 4.86149 5.36182 5.21753 5.36182H12.6213C12.9773 5.36182 13.2658 5.07324 13.2658 4.71729C13.2658 4.36133 12.9773 4.07275 12.6213 4.07275Z" fill="#295C7A"/>
<path d="M12.6213 7.04688H5.21753C4.86149 7.04688 4.573 7.33545 4.573 7.69141C4.573 8.04736 4.86149 8.33594 5.21753 8.33594H12.6213C12.9773 8.33594 13.2658 8.04736 13.2658 7.69141C13.2658 7.33545 12.9773 7.04688 12.6213 7.04688Z" fill="#295C7A"/>
<path d="M38.5954 38.8862L24.9361 26.2291C25.5591 25.5387 26.1471 24.8414 26.6943 24.141C27.7503 24.8808 29.2176 24.7833 30.1636 23.8438C31.2281 22.7867 31.234 21.0696 30.1767 20.005L24.4887 14.2778C23.434 13.2159 21.7118 13.2101 20.6498 14.2648C19.8169 15.0919 19.6339 16.3295 20.1023 17.3373C17.4971 19.3304 14.8406 21.9453 12.7498 24.6394C11.7647 24.1712 10.5212 24.3243 9.6727 25.1671C8.60837 26.2242 8.60218 27.9413 9.65964 29.0059L15.3477 34.7329C16.4038 35.7963 18.1219 35.8034 19.1865 34.746C20.1321 33.8068 20.2397 32.339 19.5075 31.2788C20.2132 30.735 20.9163 30.1504 21.6124 29.5305L34.1756 43.2757C35.0293 44.2096 36.4882 44.2457 37.3867 43.3532L38.6509 42.0976C39.548 41.2068 39.5262 39.7487 38.5954 38.8862ZM21.5582 15.1794C22.1172 14.6242 23.0215 14.6299 23.5741 15.1863L29.2622 20.9134C29.8172 21.4723 29.8144 22.374 29.2553 22.9292C28.6975 23.4831 27.7932 23.4799 27.2394 22.9223L21.5513 17.1952C20.9975 16.6376 21.0006 15.7333 21.5582 15.1794ZM20.8895 18.3581L25.751 23.253C23.767 25.8105 21.2019 28.3593 18.6259 30.3295L13.7644 25.4347C15.6976 22.9426 18.252 20.3755 20.8895 18.3581ZM18.2781 33.8315C17.7197 34.3862 16.8175 34.3837 16.2623 33.8247L10.5743 28.0976C10.0191 27.5387 10.0221 26.6369 10.5812 26.0818C11.1396 25.5271 12.0417 25.5296 12.597 26.0886L18.2851 31.8157C18.839 32.3733 18.8359 33.2776 18.2781 33.8315ZM37.7426 41.1831L36.4783 42.4387C36.0897 42.8247 35.4771 42.7889 35.1271 42.406L22.5614 28.658C22.8144 28.4185 23.0666 28.1761 23.3169 27.9275C23.5688 27.6773 23.8145 27.4251 24.0573 27.1721L37.7192 39.8317C38.1086 40.1925 38.1221 40.806 37.7426 41.1831Z" fill="#295C7A"/>
<path d="M30.9156 42.6809C30.7957 42.7006 30.6724 42.7108 30.5494 42.7108H3.565C2.33781 42.7108 1.33948 41.7123 1.33948 40.4852V3.51459C1.33948 2.28748 2.33781 1.28906 3.565 1.28906H24.5692C24.656 1.28906 24.7414 1.29774 24.8253 1.31184V5.72412C24.8253 7.6621 26.4019 9.23871 28.3398 9.23871H32.7521C32.7662 9.32267 32.7749 9.40801 32.7749 9.4948V31.9864C32.7749 32.3423 33.0634 32.6309 33.4194 32.6309C33.7755 32.6309 34.064 32.3423 34.064 31.9864V9.4948C34.064 8.74182 33.7707 8.03395 33.2384 7.50157L26.5624 0.825687C26.0301 0.293219 25.3222 0 24.5692 0H3.565C1.62711 0 0.050415 1.5767 0.050415 3.51459V40.4851C0.050415 42.423 1.62711 43.9997 3.565 43.9997H30.5494C30.7426 43.9997 30.9365 43.9838 31.1258 43.9526C31.477 43.8946 31.7147 43.5628 31.6566 43.2115C31.5986 42.8604 31.2666 42.6222 30.9156 42.6809ZM31.8634 7.94965H28.3398C27.1126 7.94965 26.1143 6.95123 26.1143 5.72412V2.2006L31.8634 7.94965Z" fill="#295C7A"/>
</g>
<defs>
<clipPath id="clip0_3347_3605">
<rect width="39.3594" height="44" fill="white"/>
</clipPath>
</defs>
</svg>
